<?xml version="1.0" encoding="UTF-8"?>
<svg xmlns="http://www.w3.org/2000/svg" xmlns:xlink="http://www.w3.org/1999/xlink" width="900px" height="900px" viewBox="0 0 900 900" version="1.1">
<g id="surface1">
<path style=" stroke:none;fill-rule:nonzero;fill:rgb(0%,0%,0%);fill-opacity:1;" d="M 439.453125 17.136719 C 412.515625 18.238281 382.191406 21.53125 359.914062 25.707031 C 286.566406 39.507812 219.683594 68.992188 168.089844 110.257812 C 153.148438 122.167969 142.910156 131.617188 130.167969 145.105469 C 111.136719 165.277344 97.03125 183.867188 82.75 207.640625 C 60.46875 244.644531 43.417969 289.554688 34.058594 335.960938 C 31.421875 349.234375 27.992188 371.863281 26.632812 385.621094 C 23.46875 416.910156 22.894531 454.085938 25.050781 485.816406 C 30.015625 558.28125 51.242188 632.195312 82.792969 686.953125 C 122.871094 756.605469 182.945312 808.769531 261.914062 842.519531 C 311.398438 863.699219 362.023438 875.214844 426.929688 880.046875 C 440.15625 881.058594 485.199219 881.277344 499.21875 880.445312 C 555.292969 877.058594 605.960938 866.734375 657.203125 848.277344 C 711.386719 828.71875 765.746094 797.957031 809.472656 762.011719 C 821.820312 751.859375 835.3125 740.171875 835.355469 739.597656 C 835.355469 739.46875 832.367188 736.875 828.675781 733.84375 C 819.492188 726.238281 805.519531 714.417969 780.863281 693.589844 C 756.828125 673.242188 736.742188 656.277344 723.558594 645.203125 C 718.507812 640.941406 711.035156 634.65625 707.035156 631.273438 C 703.039062 627.890625 693.765625 620.066406 686.425781 613.914062 C 679.085938 607.761719 669.199219 599.457031 664.453125 595.457031 C 646.875 580.648438 634.964844 570.761719 634.835938 570.894531 C 634 572.125 627.230469 580.648438 623.847656 584.691406 C 597.921875 615.894531 572.519531 636.679688 542.726562 650.960938 C 524.707031 659.574219 507.085938 664.761719 487.355469 667.175781 C 480.234375 668.054688 459.449219 667.925781 452.902344 666.914062 C 425.523438 662.871094 406.054688 653.203125 388.039062 634.746094 C 356.703125 602.621094 339.039062 552.699219 333.019531 479.441406 C 332.140625 468.71875 332.007812 464.457031 332.007812 441.648438 C 332.007812 410.007812 332.972656 395.199219 336.445312 372.4375 C 343.167969 328.84375 354.859375 297.246094 373.578125 272.242188 C 391.773438 247.9375 415.019531 233.921875 444.945312 229.21875 C 465.734375 225.964844 489.902344 227.898438 509.328125 234.316406 C 540.132812 244.46875 561.621094 264.285156 583.683594 302.738281 C 587.945312 310.164062 599.632812 333.542969 603.414062 342.246094 C 604.6875 345.191406 605.875 347.5625 606.050781 347.519531 C 606.226562 347.429688 612.464844 342.332031 619.894531 336.179688 C 627.320312 330.027344 638.65625 320.625 645.074219 315.308594 C 651.488281 309.945312 667.355469 296.804688 680.273438 286.082031 C 693.195312 275.359375 705.277344 265.386719 707.082031 263.890625 C 714.507812 257.78125 741.578125 235.371094 766.847656 214.410156 C 779.503906 203.90625 786.488281 198.148438 812.109375 177.097656 C 829.6875 162.683594 835.179688 158.113281 835.3125 157.71875 C 835.402344 157.542969 834.785156 156.839844 833.949219 156.179688 C 833.117188 155.476562 829.335938 152.09375 825.511719 148.621094 C 783.238281 110.347656 732.347656 78.484375 678.957031 56.910156 C 623.628906 34.539062 565.972656 21.53125 505.371094 17.753906 C 492.320312 16.960938 453.164062 16.566406 439.453125 17.136719 Z M 495.703125 125.683594 C 521.761719 127.398438 541.40625 130.386719 564.917969 136.273438 C 597.746094 144.492188 628.769531 156.929688 659.972656 174.417969 C 666.34375 177.976562 678.691406 185.492188 679.484375 186.238281 C 679.613281 186.414062 668.585938 195.511719 654.917969 206.453125 L 630.042969 226.316406 L 628.683594 225.21875 C 622.96875 220.5625 608.421875 209.925781 602.269531 205.882812 C 583.460938 193.578125 562.542969 183.339844 542.945312 176.878906 C 527.210938 171.738281 512.445312 168.75 493.726562 166.902344 C 484.585938 165.980469 449.515625 166.15625 440.113281 167.167969 C 421.875 169.058594 404.078125 172.96875 389.925781 178.152344 C 344.398438 194.898438 311.75 224.253906 287.929688 269.824219 C 270.089844 303.925781 258.265625 347.78125 253.828125 396.167969 C 252.289062 412.867188 252.027344 419.371094 252.027344 442.527344 C 252.070312 471.882812 253.082031 486.429688 257.125 514.160156 C 261.34375 543.121094 270.921875 578.40625 281.03125 602.269531 C 299.75 646.433594 323.527344 677.945312 354.550781 699.742188 C 378.105469 716.308594 407.550781 727.164062 439.234375 730.984375 C 449.515625 732.214844 460.371094 732.699219 474.347656 732.4375 C 502.296875 731.953125 525.453125 727.515625 551.292969 717.757812 C 574.453125 708.96875 598.929688 694.820312 620.902344 677.460938 C 624.992188 674.164062 628.726562 671.308594 629.164062 671 C 629.867188 670.605469 631.230469 671.527344 639.183594 677.855469 C 646.214844 683.4375 668.761719 701.5 679.570312 710.199219 C 680.40625 710.902344 680.316406 710.992188 676.714844 713.320312 C 640.371094 736.742188 595.109375 755.464844 551.953125 764.824219 C 532.925781 768.953125 518.773438 771.019531 498.121094 772.644531 C 487.046875 773.523438 446.527344 773.394531 434.621094 772.425781 C 392.386719 769 358.066406 760.691406 322.121094 745.222656 C 274.394531 724.65625 234.183594 692.753906 205.929688 653.070312 C 194.898438 637.558594 186.945312 623.582031 178.769531 605.347656 C 161.410156 566.675781 150.734375 519.566406 148.097656 469.996094 C 147.523438 459.625 147.523438 433.738281 148.097656 422.09375 C 149.808594 385.882812 155.699219 353.714844 166.421875 321.679688 C 171.695312 305.992188 176.132812 295.003906 182.242188 282.789062 C 199.90625 247.410156 224.210938 217.441406 255.980469 191.777344 C 286.875 166.816406 328.929688 146.335938 370.898438 135.789062 C 389.003906 131.265625 411.679688 127.574219 430.664062 126.121094 C 447.1875 124.847656 479.398438 124.628906 495.703125 125.683594 Z M 495.703125 125.683594 "/>
</g>
</svg>
