<?xml version="1.0" standalone="no"?>
<!DOCTYPE svg PUBLIC "-//W3C//DTD SVG 20010904//EN"
 "http://www.w3.org/TR/2001/REC-SVG-20010904/DTD/svg10.dtd">
<svg version="1.0" xmlns="http://www.w3.org/2000/svg"
 width="2048.000000pt" height="2048.000000pt" viewBox="0 0 2048.000000 2048.000000"
 preserveAspectRatio="xMidYMid meet">

<g transform="translate(0.000000,2048.000000) scale(0.100000,-0.100000)"
fill="#000000" stroke="none">
<path d="M10000 20090 c-613 -25 -1303 -100 -1810 -195 -1669 -314 -3191 -985
-4365 -1924 -340 -271 -573 -486 -863 -793 -433 -459 -754 -882 -1079 -1423
-507 -842 -895 -1864 -1108 -2920 -60 -302 -138 -817 -169 -1130 -72 -712 -85
-1558 -36 -2280 113 -1649 596 -3331 1314 -4577 912 -1585 2279 -2772 4076
-3540 1126 -482 2278 -744 3755 -854 301 -23 1326 -28 1645 -9 1276 77 2429
312 3595 732 1233 445 2470 1145 3465 1963 281 231 588 497 589 510 0 3 -68
62 -152 131 -209 173 -527 442 -1088 916 -547 463 -1004 849 -1304 1101 -115
97 -285 240 -376 317 -91 77 -302 255 -469 395 -167 140 -392 329 -500 420
-400 337 -671 562 -674 559 -19 -28 -173 -222 -250 -314 -590 -710 -1168
-1183 -1846 -1508 -410 -196 -811 -314 -1260 -369 -162 -20 -635 -17 -784 6
-623 92 -1066 312 -1476 732 -713 731 -1115 1867 -1252 3534 -20 244 -23 341
-23 860 0 720 22 1057 101 1575 153 992 419 1711 845 2280 414 553 943 872
1624 979 473 74 1023 30 1465 -116 701 -231 1190 -682 1692 -1557 97 -169 363
-701 449 -899 29 -67 56 -121 60 -120 4 2 146 118 315 258 169 140 427 354
573 475 146 122 507 421 801 665 294 244 569 471 610 505 169 139 785 649
1360 1126 288 239 447 370 1030 849 400 328 525 432 528 441 2 4 -12 20 -31
35 -19 16 -105 93 -192 172 -962 871 -2120 1596 -3335 2087 -1259 509 -2571
805 -3950 891 -297 18 -1188 27 -1500 14z m1280 -2470 c593 -39 1040 -107
1575 -241 747 -187 1453 -470 2163 -868 145 -81 426 -252 444 -269 3 -4 -248
-211 -559 -460 l-566 -452 -31 25 c-130 106 -461 348 -601 440 -428 280 -904
513 -1350 660 -358 117 -694 185 -1120 227 -208 21 -1006 17 -1220 -6 -415
-43 -820 -132 -1142 -250 -1036 -381 -1779 -1049 -2321 -2086 -406 -776 -675
-1774 -776 -2875 -35 -380 -41 -528 -41 -1055 1 -668 24 -999 116 -1630 96
-659 314 -1462 544 -2005 426 -1005 967 -1722 1673 -2218 536 -377 1206 -624
1927 -711 234 -28 481 -39 799 -33 636 11 1163 112 1751 334 527 200 1084 522
1584 917 93 75 178 140 188 147 16 9 47 -12 228 -156 160 -127 673 -538 919
-736 19 -16 17 -18 -65 -71 -827 -533 -1857 -959 -2839 -1172 -433 -94 -755
-141 -1225 -178 -252 -20 -1174 -17 -1445 5 -961 78 -1742 267 -2560 619
-1086 468 -2001 1194 -2644 2097 -251 353 -432 671 -618 1086 -395 880 -638
1952 -698 3080 -13 236 -13 825 0 1090 39 824 173 1556 417 2285 120 357 221
607 360 885 402 805 955 1487 1678 2071 703 568 1660 1034 2615 1274 412 103
928 187 1360 220 376 29 1109 34 1480 10z"/>
</g>
</svg>
