<svg width="100" height="37" viewBox="0 0 100 37" fill="none" xmlns="http://www.w3.org/2000/svg">
<path d="M80.8129 15.197L75.0273 8.327C74.7343 7.97884 74.3048 7.77887 73.8491 7.77887H67.6624L76.6206 18.0799C76.7852 18.2707 76.7865 18.5461 76.6258 18.7336L67.6886 28.9002H73.9344C74.3848 28.9002 74.811 28.7041 75.1041 28.3619L80.8109 21.6971C82.431 19.8134 82.4317 17.0794 80.8129 15.197Z" fill="#006DFF"/>
<path d="M26.0663 0H21.4793C21.2255 0 21.0197 0.205917 21.0197 0.4596V28.6246C21.0197 28.8783 21.2255 29.0842 21.4793 29.0842H26.0663C26.32 29.0842 26.5259 28.8783 26.5259 28.6246V0.4596C26.5259 0.205917 26.32 0 26.0663 0Z" fill="#36005C"/>
<path d="M67.2303 7.77874H62.6433C62.3896 7.77874 62.1837 7.98466 62.1837 8.23834V36.4034C62.1837 36.6571 62.3896 36.863 62.6433 36.863H67.2303C67.484 36.863 67.6899 36.6571 67.6899 36.4034V8.23834C67.6899 7.98466 67.484 7.77874 67.2303 7.77874Z" fill="#36005C"/>
<path d="M32.5041 17.9899L41.4414 7.82331H35.1956C34.7452 7.82331 34.319 8.01937 34.0259 8.36166L28.3191 15.0263C26.699 16.9107 26.6983 19.6441 28.3171 21.5265L34.1026 28.3964C34.3957 28.7446 34.8252 28.9447 35.2808 28.9447H41.4676L32.5094 18.6429C32.3455 18.4521 32.3435 18.1768 32.5041 17.9899Z" fill="#36005C"/>
<path d="M9.49862 15.7981L11.7764 16.0197L11.7783 16.019C16.5017 16.4924 18.5165 18.4312 18.5165 22.5014C18.5165 25.0362 17.6911 26.9548 16.0617 28.2044C14.5426 29.3694 12.3127 29.9603 9.43373 29.9603C4.59564 29.9603 1.57568 27.8103 0.206681 26.5292C-0.064097 26.2558 -0.0687071 25.8499 0.192243 25.5785L0.322734 25.3863L2.58212 22.7454C2.68441 22.626 2.82732 22.5552 2.98403 22.5455C3.13876 22.535 3.29022 22.5874 3.40758 22.6949L3.63642 22.9034C5.1726 24.3242 7.58938 25.2782 9.65207 25.2782C12.1154 25.2782 13.3132 24.5295 13.3132 22.9893C13.3132 21.7724 12.8208 21.1455 10.0231 20.8761L7.74541 20.6544C3.05222 20.17 1.05052 18.2253 1.05052 14.1523C1.05052 11.7467 1.80712 9.94049 3.29941 8.78259C4.69005 7.70332 6.76849 7.15651 9.47634 7.15651C12.5343 7.15651 15.4022 8.10324 17.5507 9.82242C17.8917 10.0984 17.874 10.5069 17.6806 10.7679L15.4835 13.3695C15.2514 13.6639 14.9078 13.717 14.5662 13.5092C13.3913 12.6779 11.3738 11.794 9.21344 11.794C7.22089 11.794 6.25248 12.4333 6.25248 13.7484C6.25248 14.8972 6.75405 15.5292 9.49862 15.7981Z" fill="#36005C"/>
<path d="M93.2599 16.0197L90.9821 15.7981C88.2375 15.5292 87.736 14.8972 87.736 13.7484C87.736 12.4333 88.7044 11.794 90.6969 11.794C92.8573 11.794 94.8747 12.6779 96.0497 13.5092C96.3913 13.717 96.7348 13.6639 96.9669 13.3695L99.164 10.7679C99.3575 10.5069 99.3752 10.0984 99.0342 9.82242C96.8856 8.10324 94.0178 7.15651 90.9598 7.15651C88.252 7.15651 86.1735 7.70332 84.7829 8.78259C83.2906 9.94049 82.534 11.7467 82.534 14.1523C82.534 18.2253 84.5357 20.17 89.2289 20.6544L91.5066 20.8761C94.3043 21.1455 94.7967 21.7724 94.7967 22.9893C94.7967 24.5295 93.5988 25.2782 91.1355 25.2782C89.0729 25.2782 86.6561 24.3242 85.1199 22.9034L84.8911 22.6949C84.7737 22.5874 84.6222 22.535 84.4675 22.5455C84.3108 22.5552 84.1679 22.626 84.0656 22.7454L81.8062 25.3863L81.6757 25.5785C81.4148 25.8499 81.4194 26.2558 81.6902 26.5292C83.0592 27.8103 86.0791 29.9603 90.9172 29.9603C93.7962 29.9603 96.0261 29.3694 97.5452 28.2044C99.1745 26.9548 100 25.0362 100 22.5014C100 18.4312 97.9852 16.4924 93.2618 16.019L93.2599 16.0197Z" fill="#36005C"/>
<path fill-rule="evenodd" clip-rule="evenodd" d="M43.5146 9.63494C45.2724 8.05996 47.7114 7.15651 50.2069 7.15651L50.2088 7.15587C54.5945 7.15587 57.958 9.41981 59.2064 13.2115C59.6844 14.6894 59.927 16.1003 59.927 19.7104C59.927 20.1169 59.6359 20.3903 59.2025 20.3903H45.7897V20.4119C45.7897 20.8349 46.0093 21.5147 46.1975 21.9678C46.983 23.9892 48.5992 25.0559 50.8723 25.0559C52.9954 25.0559 54.6529 24.3353 55.9393 22.8536L56.0271 22.7552C56.1274 22.6424 56.2769 22.5749 56.4474 22.5657C56.6179 22.5671 56.7732 22.6379 56.8801 22.7611L59.3192 25.566C59.5054 25.7811 59.5041 26.1037 59.3159 26.3161C59.2724 26.3652 59.2116 26.4336 59.1515 26.5002C59.0894 26.5689 59.0281 26.636 58.9874 26.678C56.9345 28.7959 53.8949 29.9616 50.4285 29.9616C45.2921 29.9616 40.0921 26.0447 40.0921 18.559C40.0921 14.7274 41.2755 11.6412 43.5146 9.63494ZM54.4437 16.1934C54.445 16.1869 54.445 16.1783 54.445 16.1659C54.445 15.4787 54.369 14.9582 54.1913 14.4244C53.6517 12.8057 52.2027 11.8392 50.2515 11.8392C48.3002 11.8392 46.7666 12.809 46.1484 14.4337C45.9602 14.928 45.791 15.4322 45.791 16.1554V16.1947H54.4162C54.4286 16.1947 54.4372 16.1941 54.4437 16.1934Z" fill="#36005C"/>
</svg>
