<svg xmlns="http://www.w3.org/2000/svg" shape-rendering="geometricPrecision" text-rendering="geometricPrecision" image-rendering="optimizeQuality" fill-rule="evenodd" clip-rule="evenodd" viewBox="0 0 512 512"><g fill-rule="nonzero"><path d="M256.002 0c70.69 0 134.688 28.658 181.017 74.981C483.343 121.311 512 185.309 512 255.998c0 70.69-28.657 134.694-74.981 181.018C390.693 483.342 326.692 512 256.002 512s-134.694-28.655-181.017-74.984C28.655 390.692 0 326.688 0 255.998c0-70.689 28.658-134.69 74.985-181.017C121.308 28.658 185.312 0 256.002 0z"/><path fill="#fff" d="M176.942 346.462l8.4-49.507c18.402 4.601 34.953 6.902 49.654 6.902 14.705 0 26.556-.601 35.557-1.799v-15.002l-27.003-2.403c-24.405-2.198-41.158-8.049-50.258-17.551-9.1-9.5-13.65-23.552-13.65-42.155 0-25.604 5.55-43.206 16.651-52.805 11.1-9.601 29.955-14.404 56.555-14.404 26.604 0 50.607 2.502 72.012 7.503l-7.503 48.005c-18.603-3-33.502-4.499-44.705-4.499-11.202 0-20.702.498-28.504 1.499v14.701l21.603 2.099c26.204 2.601 44.305 8.854 54.306 18.753 10.001 9.902 15.002 23.655 15.002 41.257 0 12.602-1.7 23.252-5.1 31.953-3.4 8.7-7.451 15.302-12.151 19.804-4.7 4.499-11.353 7.949-19.952 10.349-8.601 2.4-16.151 3.851-22.654 4.352-6.499.499-15.151.751-25.951.751-26.004 0-50.108-2.601-72.309-7.803z"/></g></svg>